/* XPM */
static char *_b7aa98a1a574927a34323961d031c24oGtG7bubOYpRlexw[] = {
/* columns rows colors chars-per-pixel */
"64 64 4 1 ",
"  c #000101",
". c #261F00",
"X c #2F2403",
"o c #99875F",
/* pixels */
" ooooooooooooooooooooo oooooooooooooooooooooooo oooooooooooooo  ",
"o      ooooooooooooooo ooooooooooooooooXooXoooo ooooooooooooo  o",
"oooooo oooooooooooooooXooooooooooXoooXXooooXXoo ooooooooooo   oo",
"oooooo ooooooooooooooXXooooXoooooXooooXooooXooo oooooooooo  oooo",
"oooooo oooooooooooooo XoooXXooXooXooooXooooXooo oooooooo  oooooo",
"oooooo oooooooooooooooXX oXooooXXXooooXXooXXooo oooooo  oooooooo",
"oooooo oooooooXXoooXX oXXXX ooooXXoooooXooXoooo ooo   oooooooooo",
"ooooooo oooooooXXooXo ooXXo    ooXoooooXooXoooo     oooooooooooo",
"ooooooo  oooooooXXXXo  XXXooooo  XoooooXXXXoo    ooooooooooooooo",
"oooooooo  oooooooXXoo  XoXoooooo XooooooXoooo o  ooooooooooooooo",
"ooooooooo  ooooooXXoo oX XXooooooX oooooXooo  o oooooooooooooooo",
"oooooooooo ooooooXXoo oXo XooooooXX  oooXooo oo oooXoooooooooooo",
"oooooooooo  oooooXXX  oXooXXooooooXoo   Xoo ooo ooooXooooooooooo",
"oooooooXooo ooooooXXXooXoooXooooooXoooo X   Xoo oooXXooooooooooo",
"oooooooXXooo oooooooXXXooooX oooooXXoooXXo XXooXXXXXoooooooooooo",
"ooooooooXXoo  oXooo XXXooooXXooooooXXooXoo oXXXX  oooooooooooooo",
"oooooooooXXXo oXooo oXXoooooXoooooooXXXXo oooXXoo  ooooooooooooo",
"oooooooooooXX XXooo ooXXooooX  oooooXo   ooooXoooo  oooooooooooo",
"ooooooooooooXXXooo  ooXXXoooXX  ooooX ooooooXoooooo  ooooooooooo",
"ooooXXoooooooXXXX  oooooXooooXoo  XXXooooooXXooooooo ooooooooooo",
"oooooXXoooooooo XXXXoooooXXooXXXXX o oooooXXoooooooo ooooooooooo",
"ooooooXXXXoooXo  ooXXXooooXXooXXooo  oooXXXooooooooo ooooooooooo",
"oooooooo X  XX o ooooXXXoooX.....oo ooXXXooooooooooo   ooooooooo",
"oooooo   XXXXooo  XooooXXooo.XXXX. XXXooooooooooooooooX  ooooooo",
"ooo   oo  XXooooo XooooooXXo.XXXX.XXoooooooooooXooooXXoo  oooooo",
"    ooooo ooXXXXXXXXoooooo..XXX.XX.ooooooooooXXXooooXoooo  oooo ",
"oooooooooo ooooooo XXXXooo.XXXX..X.oooXXXoooooXoooXoXooooo o   o",
"oooooooooo oooooooo oooXX..XXXXX.X.XXXXoXXXXoXXooooXXooo    oooo",
"oooooooooo oooooooo  oooo.XXXX.X.X.oooooooooXXXXXXXXooo  ooooooo",
"oooooooooo  oooooooo  ooo.XXXX.XXX.  oooooooooooooooooo oooooooo",
"ooooooooooo ooooooooo     .XXX..XX.oo oooooooooooooooo  oooooooo",
"ooooooooooo oooooooooooooo..XX..XX.oo  oooooooooooooo  ooooooooo",
"ooooooooooo  ooooooooooooo..XXX.XX.ooo oooooooooooo   oooooooooo",
"oooooooooooo ooooooooooooo..XXXXXX.ooo  ooooooooo   o oooooooooo",
"oooooooooooo ooooooooooooo..XXXXXX.oooo oooooooo  ooo  ooooooooo",
"oooooooooooo  oooooooooooo.XXXXXXX.oooo ooooooo  ooooo ooooooooo",
"ooooooooooooo oooooooooooo.XXX.X.X.ooooo oooooo oooooo ooooooooo",
"ooooooooooooo oooooooooooo..XX.X...ooooo ooooo  oooooo   ooooooo",
"ooooooooooooo  oooooooooo ..XX.XX..ooooo  ooo   oooooooo ooooooo",
"oooooooooooooo oooooooo   ..XX.XXX.oooooo     ooooooooooo oooooo",
"  oooooooooooo ooooooo  oo.XXXXXXX.oooooo ooooooooooooooo  ooo  ",
"o   oooooooooo ooooooo ooo.XXXXXXX.oooooo oooooooooooooooo  o  o",
"ooo   oooooooo oooooo  ooo.XXXXXXX.       oooooooooooooooo   ooo",
"ooooo oooooooo oooooo oooo.XXX..XX. oooooo        ooooooo  ooooo",
"ooooo             oo ooooo.XXX.XXX. oooooo  ooooo ooooooo oooooo",
"oooooooooooooooooo  oooooo.XXX.XXX. oooooooooooooo ooooo  oooooo",
"oooooooooooooooooo  oooooo.XXX.XXX.o ooooooooooooo  oo   ooooooo",
"ooooooooooooooooo    ooooo.XXXXXXX.o  ooooooooooooo oo ooooooooo",
"oooooooooooooooo  oo ooooo.X.XXXXX.oo oooooooooooo o  oooooooooo",
"oooooooooooooooo ooo  oooo.X.XXXXX.Xoo ooooooooooo o  oooooooooo",
"oooooooooooo     ooooo    .XX.XXXX.oooo oooooooooo oo oooooooooo",
"oooooooooo   ooooooooooo o.XX.XXXX.oooo  oooooooo ooo  ooooooooo",
"ooooooooo  ooooooooooooo o.XX.XXXX.ooo     oooooo oooo  oooooooo",
"ooooooooo oooooooooooooo o.XX.XXXX.ooo ooo  ooooo ooooo  ooooooo",
"ooooooooo ooooooooooooo  o.XXXXXXX.oo ooooo  ooo  oooooo  oooooo",
"oooooooo oooooooooooooo oo.XXXX..X.oo oooooo oo  oooooooo  ooooo",
"ooooooo oooooooooooooo  oo.XXXX.XXX. ooooooo oo oooooooooo  oooo",
"oooooo  oooooooooooooo oo..XXXX.XXX. ooooooo   oooooooooooo  ooo",
"ooooo  ooooooooooooooo oo.XX.XX.XXX. oooooooo oooooooooooooo ooo",
"ooooo oooooooooooooooo oo.XX.XXXXXXX.oooooooo ooooooooooooooo oo",
"ooo   oooooooooooooooo  ..XX.XXXX..X.oooooooo  oooooooooooooo oo",
"oo  ooooooooooooooooooo .XXX.XXXXX.XX.oooooooo oooooooooooooo  o",
"o  ooooooooooooooooooo ..XXXXXXXXXXXX.oooooooo  oooooooooooooo o",
" ooooooooooooooooooooo..................ooooooo ooooooooooooooo "
};
