/* XPM */
static char *c06a6351f771410e9cdd4443994acc7fKFLE0kpelUcP6K1K[] = {
/* columns rows colors chars-per-pixel */
"64 64 11 1 ",
"  c #000101",
". c #271E01",
"X c #2A2000",
"o c #382C01",
"O c #3C2F03",
"+ c #2B2B2A",
"@ c #62040C",
"# c #463801",
"$ c gray46",
"% c #ED1C24",
"& c #8C7D87",
/* pixels */
" &&&&&&&&&&&&&&&&&&&&& &&&&&&&&&&&&&&&&&&&&&&&& &&&&&&&&&&&&&&  ",
"&      &&&&&&&&&&&&&&& &&&&&&&&&&&&&&&&&&&&&&&& &&&&&&&&&&&&&  &",
"&&&&&& &&&&&&&&&&&&&&& &&&&&&&&&&&&&&&&&&&&&&&& &&&&&&&&&&&   &&",
"&&&&&& &&&&&&&&OO&&&& &&&&&&&&&&&&&&&&&&&&&&&&& &&&&&&&&&&  &&&&",
"&&&&&& &&&&&&&&O&OO&& &&&&&&&&&&&&&&&&&&&&&&&&& &&&&&&&&  &&&&&&",
"&&&&&& &&&&&&&&O&&&OO&   &&&&&&&&&&&&&&&&&&&&&& &&&&&&  &&&&&&&&",
"&&&&&& &&&&&&&&O&&&&&OO&&   X&&&&&&&&&&&&&&&&&& &&&   &&&&&&&&&&",
"&&&&&&& &&&&&&&O&&&&& &OO&&  . &&&&&&&&&&&&&&&&     &&&&&&&&&&&&",
"&&&&&&&  &&&&&&O&&&&&  &&OO&.&& X&&&&&&&&&&&&    &&&&&&&&&&&&&&&",
"&&&&&&&&  &&&&&O&&&&&  &X&&OO#&X  &.&&&&&&&&& &  &&&&&&&&&&&&&&&",
"&&&&&&&&&  &&&&O&&&&& &X &&#&###& .&&&&&&&&&  & &&&&&&&&&&&&&&&&",
"&&&&&&&&&& &&&&O&&&&& &&. ########&  &&&&&&& && &&&&&&&&&&&&&&&&",
"&&&&&&&&&&  &&&O&&&&  &&&###XX###X#&..  &&& &&& &&&&&&&&&&&&&&&&",
"&&&&&&&&&&& &&&O&&&& &&&&&O###X#X###O&&     &&& &&&&&&&&&&&&&&&&",
"&&&&&&&&&&&& &&O&&&& &&&&O$##@@#@@#$$OO&&& &&&& &&&&&&&&&&&&&&&&",
"&&&&&&&&&&&&  &O&&&  &&OO$##########$$OOO& &&&&   &&&&&&&&&&&&&&",
"&&&&&&&&&&&&& &O&&& &&O$$$##########$$$$OOO&&&&&&  &&&&&&&&&&&&&",
"&&&&&&&&&&&&&  O&&& &O$$$$$##XXXX##$$$$$$O&OO&&&&&  &&&&&&&&&&&&",
"&&&&&&&&&&&&&& O&& o&O$$$$$$######$$$$$$$O&&&OOO&&&  &&&&&&&&&&&",
"&&&&&&&&&&&&&&&O#  oo$$##$$$$####$$$$$$$$$O&&&&O&&&& &&&&&&&&&&&",
"&&&&&&&&&&&&&&&# &&O$o$$$#$$$$##$$$$o$$$#$#O&&&O&&&& &&&&&&&&&&&",
"&&&&&&&&&&&&&&&##&&Oo$$$#$$$$####$$$$o$$$#$O&&&O&&&& &&&&&&&&&&&",
"&&&&&&&&       O #O$$o$$$#$$#oo###$$oo$$#$$$O&&O&&&&   &&&&&&&&&",
"&&&&&&   &&&&&&O  ############o####X#####$$$$&&O&&&&&&   &&&&&&&",
"&&&   &&  &&&&&O& O$####o#######ooX###XX#$$$#&&O&&&&&&&&  &&&&&&",
"    &&&&& &&&&&O&O$$####o#######oo####oo##$$$#&O&&&&&&&&&  &&&& ",
"&&&&&&&&&& &&&&O&O$#####oo######oo#####o##$$##&O&&&&&&&&&& &   &",
"&&&&&&&&&& &&&&O&O$#X########X#####X###oX#$# O&O&&&&&&&&    &&&&",
"&&&&&&&&&& &&&&O&O$#o##$##o##X####Xoo######  O&O&&&&&&&  &&&&&&&",
"&&&&&&&&&&  &&&OO  ##X#$##oX##XX##oo#$#XX#    OO&&&&&&& &&&&&&&&",
"&&&&&&&&&&& &&&OO  ####$##oo######o##$##X#    OO&&&&&&  &&&&&&&&",
"&&&&&&&&&&& &&&OO  ###$$###oX########$$#X#    OO&&&&&  &&&&&&&&&",
"&&&&&&&&&&&  &&OO  ###$$####o####o#oo$$###    OO&&&   &&&&&&&&&&",
"&&&&&&&&&&&& &&OO  Xo#$$#o######oo#o#$$###    OO&   & &&&&&&&&&&",
"&&&&&&&&&&&& &&OO  #oX$$#o##XX#oo##o#$$##X    OO  &&&  &&&&&&&&&",
"&&&&&&&&&&&&  &OO  ##X $#o##XX#o#####$$#X#    OO &&&&& &&&&&&&&&",
"&&&&&&&&&&&&& &OO  ###  #oo##X###oX##$$#X#    OO&&&&&& &&&&&&&&&",
"&&&&&&&&&&&&& &OO  ###  ##o######Xo##$$###    OO&&&&&&   &&&&&&&",
"&&&&&&&&&&&&&  OO  #### ##o#######X## ####    OO&&&&&&&& &&&&&&&",
"&&&&&&&&&&&&&& OO  ###  Xo###X####X##  ###    OO&&&&&&&&& &&&&&&",
"  &&&&&&&&&&&& O&O ###  #oo##XX###X##+ ###   O&O&&&&&&&&&  &&&  ",
"&   &&&&&&&&&& O&O      #X###########++      O&O&&&&&&&&&&  &  &",
"&&&   &&&&&&&& O&O       XX######o##%++      O&O&&&&&&&&&&   &&&",
"&&&&& &&&&&&&& O&O      +####%+%####%%++     O O  &&&&&&&  &&&&&",
"&&&&&          O  O    ++###%+%%##XX+%+++   O&&O& &&&&&&& &&&&&&",
"&&&&&&&&&&&&&&&O&&O    ++###%+%++##X+%++++  O&&O&& &&&&&  &&&&&&",
"&&&&&&&&&&&&&&&O&&O   ++%#o#++%++##X+%++++++O&&O&&  &&   &&&&&&&",
"&&&&&&&&&&&&&&&O&  O++%%%#o#+%%++##X+%%++++O&&&O&&& && &&&&&&&&&",
"&&&&&&&&&&&&&&&O  &O+%%++#XX+%+++###++%++++O&&&O&& &  &&&&&&&&&&",
"&&&&&&&&&&&&&&&O &&&O++++###+%+++###++%%++O&&&&O&& &  &&&&&&&&&&",
"&&&&&&&&&&&&   O &&&&O+++###%%+++#X#+++%+O&&&&&O&& && &&&&&&&&&&",
"&&&&&&&&&&   &&O&&&&&O++%###%++++#X#+++%+O&&&&OO& &&&  &&&&&&&&&",
"&&&&&&&&&  &&&&O&&&&&&O+%#o#%++++oX#++++O  OOO&&& &&&&  &&&&&&&&",
"&&&&&&&&& &&&&&O&&&&&&&OOXo#%++++X##++OOOOO &&&&& &&&&&  &&&&&&&",
"&&&&&&&&& &&&&&O&&&&&&& #oo#%++++###o#OO&&&  &&&  &&&&&&  &&&&&&",
"&&&&&&&& &&&&&&O&&&&&######O++++++#Xo#X#&&&& &&  &&&&&&&&  &&&&&",
"&&&&&&& &&&&&&&O&&&###Xo#X#&OOOOOO##X##X##&& && &&&&&&&&&&  &&&&",
"&&&&&&  &&&&&&&O&&&&##X##X#&&OO&&&#######&&&   &&&&&&&&&&&&  &&&",
"&&&&&  &&&&&&&&O&&&&&& &&&OOO&&&&&&  &&&&&&&& &&&&&&&&&&&&&& &&&",
"&&&&& &&&&&&&&&O&&&&&& OOO&&&&&&&&& &&&&&&&&& &&&&&&&&&&&&&&& &&",
"&&&   &&&&&&&&&O&&&&OOO &&&&&&&&&& &&&&&&&&&&  &&&&&&&&&&&&&& &&",
"&&  &&&&&&&&&&&O&OOO&&& &&&&&&&&&  &&&&&&&&&&& &&&&&&&&&&&&&&  &",
"&  &&&&&&&&&&&&OO&&&&&  &&&&&&&&  &&&&&&&&&&&&  &&&&&&&&&&&&&& &",
" &&&&&&&&&&&&&&&&&&&&& &&&&&&&&& &&&&&&&&&&&&&& &&&&&&&&&&&&&&& "
};
