/* XPM */
static char *a95424b709264045a491cbe0fb349ba0Hlj5sZxhvxXNvzkw[] = {
/* columns rows colors chars-per-pixel */
"64 64 7 1 ",
"  c #000101",
". c #271E01",
"X c #2A2000",
"o c #382C01",
"O c #62040C",
"+ c #463801",
"@ c #8C7D87",
/* pixels */
" @@@@@@@@@@@@@@@@@@@@@ @@@@@@@@@@@@@@@@@@@@@@@@ @@@@@@@@@@@@@@  ",
"@      @@@@@@@@@@@@@@@ @@@@@@@@@@@@@@@@@@@@@@@@ @@@@@@@@@@@@@  @",
"@@@@@@ @@@@@@@@@@@@@@@ @@@@@@@@@@@@@@@@@@@@@@@@ @@@@@@@@@@@   @@",
"@@@@@@ @@@@@@@@@@@@@@ @@@@@@@@@@@@@@@@@@@@@@@@@ @@@@@@@@@@  @@@@",
"@@@@@@ @@@@@@@@@@@@@@ @@@@@@@@@@@@@@@@@@@@@@@@@ @@@@@@@@  @@@@@@",
"@@@@@@ @@@@@@@@@@@@@@@   @@@@@@@@@@@@@@@@@@@@@@ @@@@@@  @@@@@@@@",
"@@@@@@ @@@@@@@@@@@@@@ @@@   X@@@@@@@@@@@@@@@@@@ @@@   @@@@@@@@@@",
"@@@@@@@ @@@@@@@@@@@@@ @@@@@  . @@@@@@@@@@@@@@@@     @@@@@@@@@@@@",
"@@@@@@@  @@@@@@@@@@@@  @@@@@.@@ X@@@@@@@@@@@@    @@@@@@@@@@@@@@@",
"@@@@@@@@  @@@@@@@@@@@  @X@@@@+@X  @.@@@@@@@@@ @  @@@@@@@@@@@@@@@",
"@@@@@@@@@  @@@@@@@@@@ @X @@+@+++@ .@@@@@@@@@  @ @@@@@@@@@@@@@@@@",
"@@@@@@@@@@ @@@@@@@@@@ @@. ++++++++@  @@@@@@@ @@ @@@@@@@@@@@@@@@@",
"@@@@@@@@@@  @@@@@@@@  @@@+++XX+++X+@..  @@@ @@@ @@@@@@@@@@@@@@@@",
"@@@@@@@@@@@ @@@@@@@@ @@@@@@+++X+X+++@@@     @@@ @@@@@@@@@@@@@@@@",
"@@@@@@@@@@@@ @@@@@@@ @@@@@@++OO+OO+@@@@@@@ @@@@ @@@@@@@@@@@@@@@@",
"@@@@@@@@@@@@  @@@@@  @@@@@++++++++++@@@@@@ @@@@   @@@@@@@@@@@@@@",
"@@@@@@@@@@@@@ @@@@@ @@@@@@++++++++++@@@@@ @@@@@@@  @@@@@@@@@@@@@",
"@@@@@@@@@@@@@  @@@@ @@@@@@@++XXXX++@@@   @@@@@@@@@  @@@@@@@@@@@@",
"@@@@@@@@@@@@@@ @@@ o@@@@@@@@++++++@@  @@@@@@@@@@@@@  @@@@@@@@@@@",
"@@@@@@@@@@@@@@@ +  oo@@++@@@@++++ @@ @@@@@@@@@@@@@@@ @@@@@@@@@@@",
"@@@@@@@@@@@@@@@+ @@@@o@@@+@@@@++@  @o@@@+@+@@@@@@@@@ @@@@@@@@@@@",
"@@@@@@@@@@@@@@@++@@@o@@@+@@@@++++@@  o@@@+@@@@@@@@@@ @@@@@@@@@@@",
"@@@@@@@@       @ +@@@o@@@+@@+oo+++@ oo@@+@@@@@@@@@@@   @@@@@@@@@",
"@@@@@@   @@@@@@@  ++++++++++++o++++X+++++@@@@@@@@@@@@@   @@@@@@@",
"@@@   @@  @@@@@@@ @@++++o+++++++ooX+++XX+@@@+@@@@@@@@@@@  @@@@@@",
"    @@@@@ @@@@@@@  @++++o+++++++oo++++oo++@@@+@@@@@@@@@@@  @@@@ ",
"@@@@@@@@@@ @@@@@@@ +++++oo++++++oo+++++o++@@++@@@@@@@@@@@@ @   @",
"@@@@@@@@@@ @@@@@@@@+X++++++++X+++++X+++oX+@+@@@@@@@@@@@@    @@@@",
"@@@@@@@@@@ @@@@@@@@+o++@++o++X++++Xoo++++++@@@@@@@@@@@@  @@@@@@@",
"@@@@@@@@@@  @@@@@@@++X+@++oX++XX++oo+@+XX+@@@@@@@@@@@@@ @@@@@@@@",
"@@@@@@@@@@@ @@@@@@@++++ ++oo++++++o++ ++X+@@@@@@@@@@@@  @@@@@@@@",
"@@@@@@@@@@@ @@@@@@@+++@@+++oX++++++++  +X+@@@@@@@@@@@  @@@@@@@@@",
"@@@@@@@@@@@  @@@@@@+++@@++++o++++o+oo@ +++@@@@@@@@@   @@@@@@@@@@",
"@@@@@@@@@@@@ @@@@@@Xo+@@+o++++++oo+o+@ +++@@@@@@@   @ @@@@@@@@@@",
"@@@@@@@@@@@@ @@@@@@+oX@@+o++XX+oo++o+@@++X@@@@@@  @@@  @@@@@@@@@",
"@@@@@@@@@@@@  @@@@@++X@@+o++XX+o+++++@@+X+@@@@@  @@@@@ @@@@@@@@@",
"@@@@@@@@@@@@@ @@@@@+++@@+oo++X+++oX++@@+X+@@@@@ @@@@@@ @@@@@@@@@",
"@@@@@@@@@@@@@ @@@@@+++@@++o++++++Xo++@@+++@@@@  @@@@@@   @@@@@@@",
"@@@@@@@@@@@@@  @@@@++++@++o+++++++X++@++++@@@   @@@@@@@@ @@@@@@@",
"@@@@@@@@@@@@@@ @@@@+++@ Xo+++X++++X++@@+++    @@@@@@@@@@@ @@@@@@",
"  @@@@@@@@@@@@ @@@@+++  +oo++XX+++X++@@+++@@@@@@@@@@@@@@@  @@@  ",
"@   @@@@@@@@@@ @@@@@@@ @+X+++++++++++@@@@ @@@@@@@@@@@@@@@@  @  @",
"@@@   @@@@@@@@ @@@@@@  @@XX++++++o++      @@@@@@@@@@@@@@@@   @@@",
"@@@@@ @@@@@@@@ @@@@@@ @@@++++@@@++++@@@@@@        @@@@@@@  @@@@@",
"@@@@@             @@ @@@@+++@@@@++XX@@@@@@  @@@@@ @@@@@@@ @@@@@@",
"@@@@@@@@@@@@@@@@@@  @@@@@+++@@@  ++X@@@@@@@@@@@@@@ @@@@@  @@@@@@",
"@@@@@@@@@@@@@@@@@@  @@@@@+o+@   @++X @@@@@@@@@@@@@  @@   @@@@@@@",
"@@@@@@@@@@@@@@@@@    @@@@+o+  @@@++X  @@@@@@@@@@@@@ @@ @@@@@@@@@",
"@@@@@@@@@@@@@@@@  @@ @@@@+XX @@@@+++@ @@@@@@@@@@@@ @  @@@@@@@@@@",
"@@@@@@@@@@@@@@@@ @@@  @@@+++@@@@@+++@@ @@@@@@@@@@@ @  @@@@@@@@@@",
"@@@@@@@@@@@@     @@@@@   +++@@@@@+X+@@@ @@@@@@@@@@ @@ @@@@@@@@@@",
"@@@@@@@@@@   @@@@@@@@@@@ +++@@@@@+X+@@@  @@@@@@@@ @@@  @@@@@@@@@",
"@@@@@@@@@  @@@@@@@@@@@@@ +o+@@@@@oX+@@     @@@@@@ @@@@  @@@@@@@@",
"@@@@@@@@@ @@@@@@@@@@@@@@ Xo+@@@@@X++@@ @@@  @@@@@ @@@@@  @@@@@@@",
"@@@@@@@@@ @@@@@@@@@@@@@ +oo+@@@@@+++o+@@@@@  @@@  @@@@@@  @@@@@@",
"@@@@@@@@ @@@@@@@@@@@@++++++@@@@@@@+Xo+X+@@@@ @@  @@@@@@@@  @@@@@",
"@@@@@@@ @@@@@@@@@@@+++Xo+X+@@@@@@@++X++X++@@ @@ @@@@@@@@@@  @@@@",
"@@@@@@  @@@@@@@@@@@@++X++X+@@@@@@@+++++++@@@   @@@@@@@@@@@@  @@@",
"@@@@@  @@@@@@@@@@@@@@@ @@@@@@@@@@@@  @@@@@@@@ @@@@@@@@@@@@@@ @@@",
"@@@@@ @@@@@@@@@@@@@@@@ @@@@@@@@@@@@ @@@@@@@@@ @@@@@@@@@@@@@@@ @@",
"@@@   @@@@@@@@@@@@@@@@  @@@@@@@@@@ @@@@@@@@@@  @@@@@@@@@@@@@@ @@",
"@@  @@@@@@@@@@@@@@@@@@@ @@@@@@@@@  @@@@@@@@@@@ @@@@@@@@@@@@@@  @",
"@  @@@@@@@@@@@@@@@@@@@  @@@@@@@@  @@@@@@@@@@@@  @@@@@@@@@@@@@@ @",
" @@@@@@@@@@@@@@@@@@@@@ @@@@@@@@@ @@@@@@@@@@@@@@ @@@@@@@@@@@@@@@ "
};
