/* XPM */
static char *ed6b3e7f0dda431f9252997971995ceeBCHvKOicJUETz8Pv[] = {
/* columns rows colors chars-per-pixel */
"64 64 5 1 ",
"  c #000101",
". c #5C4705",
"X c #22B04C",
"o c #F2E707",
"O c #8C7D87",
/* pixels */
" OOOOOOOOOOOOOOOOOOOOO OOOOOOOOOOOOOOOOOOOOOOOO OOOOOOOOOOOOOO  ",
"O      OOOOOOOOOOOOOOO OOOOOOOOOOOOOOOOOOOOOOOO OOOOOOOOOOOOO  O",
"OOOOOO OOOOOOOOOOOOOOO OOOOOOOOOOOOOOOOOOOOOOOO OOOOOOOOOOO   OO",
"OOOOOO OOOOOOOOOOOOOO OOOOOOOOOOOOOOOOOOOOOOOOO OOOOOOOOOO  OOOO",
"OOOOOO OOOOOOOOOOOOOO OOOOOOOOOOOOOOOOOOOOOOOOO OOOOOOOO  OOOOOO",
"OOOOOO OOOOOOOOOOOOOOO   OOOOOOOOOOOOOOOOOOOOOO OOOOOO  OOOOOOOO",
"OOOOOO OOOOOOOOOOOOOO OOO   OOOOOOOOOOOOOOOOOOO OOO   OOOOOOOOOO",
"OOOOOOO OOOOOOOOOOOOO OOOOO    OOOOOOOOOOOOOOOO     OOOOOOOOOOOO",
"OOOOOOO  OOOOOOOOOOOO  OOOOOOOO  OOOOOOOOOOOO    OOOOOOOOOOOOOOO",
"OOOOOOOO  OOOOOOOOOOO  OOOOOOOOO  OOOOOOOOOOO O  OOOOOOOOOOOOOOO",
"OOOOOOOOO  OOOOOOOOOO O  OOOOOOOO  OOOOOOOOO  O OOOOOOOOOOOOOOOO",
"OOOOOOOOOO OOOOOOOOOO OOO OOOOOOOOO  OOOOOOO OO OOOOOOOOOOOOOOOO",
"OOOOOOOOOO  OOOOOOOO  OOOO OOOOOOOOOO   OOO OOO OOOOOOOOOOOOOOOO",
"OOOOOOOOOOO OOOOOOOO OOOOOO OOOOOOOOOOO     OOO OOOOOOOOOOOOOOOO",
"OOOOOOOOOOOO OOOOOOO OOOOOOO OOOOOOOOOOOOO OOOO OOOOOOOOOOOOOOOO",
"OOOOOOOOOOOO  OOOOO  OOOOOOO OOOOOOOOOOOOO OOOO   OOOOOOOOOOOOOO",
"OOOOOOOOOOOOO OOOOO OOOOOOOO OOOOOOOOOOOO OOOOOOO  OOOOOOOOOOOOO",
"OOOOOOOOOOOOO  OOOO OOOOOOOOO  OOOOOOO   OOOOOOOOO  OOOOOOOOOOOO",
"OOOOOOOOOOOOOO OOO  OOOOOOOOOO  OOOO  OOOOOOOOOOOOO  OOOOOOOOOOO",
"OOOOOOOOOOOOOOO    OOOOOOOOOooooooOO OOOOOOOOOOOOOOO OOOOOOOOOOO",
"OOOOOOOOOOOOOOO  OOOOOOOOOOOoooooooO OOOOOOOOOOOOOOO OOOOOOOOOOO",
"OOOOOOOOOOOOOOO  OOOOOOooooOoooooooooooooOOOOOOOOOOO OOOOOOOOOOO",
"OOOOOOOO       O OOOOOOooooooooooooooooooOOOOOOOOOOO   OOOOOOOOO",
"OOOOOO   OOOOOOO  OOOOoooooooo....oooooooOOOOOOOOOOOOO   OOOOOOO",
"OOO   OO  OOOOOOO OOOOoooooo........oooooOOOOOOOOOOOOOOO  OOOOOO",
"    OOOOO OOOOOOO  OOOOOoooo........oooooOOOOOOOOOOOOOOOO  OOOO ",
"OOOOOOOOOO OOOOOOO  OOOOoooo.........oooOOOOOOOOOOOOOOOOOO O   O",
"OOOOOOOOOO OOOOOOOO OOoooooo.........oooooOOOOOOOOOOOOOO    OOOO",
"OOOOOOOOOO OOOOOOOO  ooooooo.........ooooooOOOOOOOOOOOO  OOOOOOO",
"OOOOOOOOOO  OOOOOOOO  oooooo.......ooooooooOOOOOOOOOOOO OOOOOOOO",
"OOOOOOOOOOO OOOOOOOOO  ooooooo....ooooooooOOOOOOOOOOOO  OOOOOOOO",
"OOOOOOOOOOO OOOOOOOOOOOOooooooooooooooooOOOOOOOOOOOOO  OOOOOOOOO",
"OOOOOOOOOOO  OOOOOOOOOOOoooooooooooooX OOOOOOOOOOOO   OOOOOOOOOO",
"OOOOOOOOOOOO OOOOOOOOOOOooooooooooooOXX OOOOOOOOO   O OOOOOOOOOO",
"OOOOOOOOOOOO OOOOOOOOOOOOooo OoooooOOOX OOOOOOOO  OOO  OOOOOOOOO",
"OOOOOOOOOOOO  OOOOOOOOOOOOOO OOOOOOOOOOXOOOOOOO  OOOOO OOOOOOOOO",
"OOOOOOOOOOOOO OOOOOOOOOOOOO  OOOOOOOOOOXXOOOOOO OOOOOO OOOOOOOOO",
"OOOOOOOOOOOOO OOOOOOOOOOOO  OOOOOOOOOOOOXOOOOO  OOOOOO   OOOOOOO",
"OOOOOOOOOOOOO  OOOOOOOOOO  OOOOOOOOOOOOOXXOOO   OOOOOOOO OOOOOOO",
"OOOOOOOOOOOOOO OOOOOOOO   OOOOOOOOOOOOOOOX    OOOOOOOOOOO OOOOOO",
"  OOOOOOOOOOOO OOOOOOO  OOOOOOOOOOOOOOOOOXXOOOOOOOOOOOOOO  OOO  ",
"O   OOOOOOOOOO OOOOOOO OOOOOOOOOOOOOOOOOO XOOOOOOOOOOOOOOO  O  O",
"OOO   OOOOOOOO OOOOOO  OOOOOOOOOO         XOOOOOOOOOOOOOOO   OOO",
"OOOOO OOOOOOOO OOOOOO OOOOOOOOOOO   OOOOOOX       OOOOOOO  OOOOO",
"OOOOO             OO OOOOOOOOOOO OO OOOOOO XOOOOO OOOOOOO OOOOOO",
"OOOOOOOOOOOOOOOOOO  OOOOOOOOOOO  OO OOOOOOOXOOOOOO OOOOO  OOOOOO",
"OOOOOOOOOOOOOOOOOO  OOOOOOOOO   OOOO OOOOOOXOOOOOO  OO   OOOOOOO",
"OOOOOOOOOOOOOOOOO    OOOOOOO  OOOOOO  OOOOOOOOOOOOO OO OOOOOOOOO",
"OOOOOOOOOOOOOOOO  OO OOOOOO  OOOOOOOO OOOOOOOOOOOO O  OOOOOOOOOO",
"OOOOOOOOOOOOOOOO OOO  OOOO  OOOOOOOOOO OOOOOOOOOOO O  OOOOOOOOOO",
"OOOOOOOOOOOO     OOOOO    OOOOOOOOOOOOO OOOOOOOOOO OO OOOOOOOOOO",
"OOOOOOOOOO   OOOOOOOOOOO OOOOOOOOOOOOOO  OOOOOOOO OOO  OOOOOOOOO",
"OOOOOOOOO  OOOOOOOOOOOOO OOOOOOOOOOOOO     OOOOOO OOOO  OOOOOOOO",
"OOOOOOOOO OOOOOOOOOOOOOO OOOOOOOOOOOOO OOO  OOOOO OOOOO  OOOOOOO",
"OOOOOOOOO OOOOOOOOOOOOO  OOOOOOOOOOOO OOOOO  OOO  OOOOOO  OOOOOO",
"OOOOOOOO OOOOOOOOOOOOOO OOOOOOOOOOOOO OOOOOO OO  OOOOOOOO  OOOOO",
"OOOOOOO OOOOOOOOOOOOOO  OOOOOOOOOOOO OOOOOOO OO OOOOOOOOOO  OOOO",
"OOOOOO  OOOOOOOOOOOOOO OOOOOOOOOOOOO OOOOOOO   OOOOOOOOOOOO  OOO",
"OOOOO  OOOOOOOOOOOOOOO OOOOOOOOOOOO  OOOOOOOO OOOOOOOOOOOOOO OOO",
"OOOOO OOOOOOOOOOOOOOOO OOOOOOOOOOOO OOOOOOOOO OOOOOOOOOOOOOOO OO",
"OOO   OOOOOOOOOOOOOOOO  OOOOOOOOOO OOOOOOOOOO  OOOOOOOOOOOOOO OO",
"OO  OOOOOOOOOOOOOOOOOOO OOOOOOOOO  OOOOOOOOOOO OOOOOOOOOOOOOO  O",
"O  OOOOOOOOOOOOOOOOOOO  OOOOOOOO  OOOOOOOOOOOO  OOOOOOOOOOOOOO O",
" OOOOOOOOOOOOOOOOOOOOO OOOOOOOOO OOOOOOOOOOOOOO OOOOOOOOOOOOOOO "
};
