/* XPM */
static char *_4fe0772407446609994b00cb5899539xOs3Cyr5uof8Ba4e[] = {
/* columns rows colors chars-per-pixel */
"64 64 7 1 ",
"  c #000101",
". c #2E2302",
"X c #3C2F03",
"o c #2B2B2A",
"O c #757475",
"+ c #ED1D25",
"@ c #8C7D87",
/* pixels */
" @@@@@@@@@@@@@@@@@@@@@ @@@@@@@@@@@@@@@@@@@@@@@@ @@@@@@@@@@@@@@  ",
"@      @@@@@@@@@@@@@@@ @@@@@@@@@@@@@@@@@@@@@@@@ @@@@@@@@@@@@@  @",
"@@@@@@ @@@@@@@...@@@@@ @@@@@@@@@@@@@@@@@@@@@@@@ @@@@@@@@@@@   @@",
"@@@@@@ @@@@@@@.XX..@@ @@@@@@@@@@@@@@@@@@@@@@@@@ @@@@@@@@@@  @@@@",
"@@@@@@ @@@@@@@.X@XX.. @@@@@@@@@@@@@@@@@@@@@@@@@ @@@@@@@@  @@@@@@",
"@@@@@@ @@@@@@@.X@@@XX..  @@@@@@@@@@@@@@@@@@@@@@ @@@@@@  @@@@@@@@",
"@@@@@@ @@@@@@@.X@@@@@XX..   @@@@@@@@@@@@@@@@@@@ @@@   @@@@@@@@@@",
"@@@@@@@ @@@@@@.X@@@@@ @XX..    @@@@@@@@@@@@@@@@     @@@@@@@@@@@@",
"@@@@@@@  @@@@@.X@@@@@  @@XX..@@  @@@@@@@@@@@@    @@@@@@@@@@@@@@@",
"@@@@@@@@  @@@@.X@@@@@  @@@@XX..@  @@@@@@@@@@@ @  @@@@@@@@@@@@@@@",
"@@@@@@@@@  @@@.X@@@@@ @  @@@@XX..  @@@@@@@@@  @ @@@@@@@@@@@@@@@@",
"@@@@@@@@@@ @@@.X@@@@@ @@@ @@@@@XX..  @@@@@@@ @@ @@@@@@@@@@@@@@@@",
"@@@@@@@@@@  @@.X@@@@  @@@@ @XXXXXXX..   @@@ @@@ @@@@@@@@@@@@@@@@",
"@@@@@@@@@@@ @@.X@@@@ @@@@@XXOOOOOOOXX..     @@@ @@@@@@@@@@@@@@@@",
"@@@@@@@@@@@@ @.X@@@@ @@@@XOOOOOOOOOOOXX..@ @@@@ @@@@@@@@@@@@@@@@",
"@@@@@@@@@@@@  .X@@@  @@XXOOOOOOOOOOOOOXXX..@@@@   @@@@@@@@@@@@@@",
"@@@@@@@@@@@@@ .X@@@ @@XOOOOOOOOOOOOOOOOOXXX..@@@@  @@@@@@@@@@@@@",
"@@@@@@@@@@@@@ .X@@@ @XOOOOOOOOOOOOOOOOOOOX@XX..@@@  @@@@@@@@@@@@",
"@@@@@@@@@@@@@@.X@@  @XOOOOOOOOOOOOOOOOOOOX@@@XX.@@@  @@@@@@@@@@@",
"@@@@@@@@@@@@@@.X   @XOOOOOOOOOOOOOOOOOOOOOX@@@@.@@@@ @@@@@@@@@@@",
"@@@@@@@@@@@@@@.X @@XOOOOOOOOOOOOOOOOOOOOOOOX@@@.@@@@ @@@@@@@@@@@",
"@@@@@@@@@@@@@@.X @@XOOOOOOOOOOOOOOOOOOOOOOOX@@@.@@@@ @@@@@@@@@@@",
"@@@@@@@@      .X @XOOOOOOOOOOOOOOOOOOOOOOOOOX@@.@@@@   @@@@@@@@@",
"@@@@@@   @@@@@.X  XOOOOOOOOOOOOOOOOOOOOOOOOOO@@.@@@@@@   @@@@@@@",
"@@@   @@  @@@@.X@ XOOOOOOOOOOOOOOOOOOOOOOOOOO@@.@@@@@@@@  @@@@@@",
"    @@@@@ @@@@.X@XOOOOOOOOOOOOOOOOOOOOOOOOOOOX@.@@@@@@@@@  @@@@ ",
"@@@@@@@@@@ @@@.X@XOOOOOOOOOOOOOOOOOOOOOOOOOOOX@.@@@@@@@@@@ @   @",
"@@@@@@@@@@ @@@.X@XOOOOOOOOOOOOOOOOOOOOOOOOO  X@.@@@@@@@@    @@@@",
"@@@@@@@@@@ @@@.X@XOOOOOOOOOOOOOOOOOOOOOOO    X@.@@@@@@@  @@@@@@@",
"@@@@@@@@@@  @@.XX  OOOOOOOOOOOOOOOOOOOOO      X.@@@@@@@ @@@@@@@@",
"@@@@@@@@@@@ @@.XX   OOOOOOOOOOOOOOOOOOOO      X.@@@@@@  @@@@@@@@",
"@@@@@@@@@@@ @@.XX   OOOOOOOOOOOOOOOOOOOO      X.@@@@@  @@@@@@@@@",
"@@@@@@@@@@@  @.XX   OOOOOOOOOOOOOOOOOOO       X.@@@   @@@@@@@@@@",
"@@@@@@@@@@@@ @.XX    OOOOOOOOOOOOOOOOOO       X.@   @ @@@@@@@@@@",
"@@@@@@@@@@@@ @.XX     OOOOOOOOOOOOOOOOO       X.  @@@  @@@@@@@@@",
"@@@@@@@@@@@@  .XX      OOOOOOOOOOOOOOOO       X. @@@@@ @@@@@@@@@",
"@@@@@@@@@@@@@ .XX       OOOOOOOOOOOOOOO       X.@@@@@@ @@@@@@@@@",
"@@@@@@@@@@@@@ .XX       OOOOOOOOOOOOOOO       X.@@@@@@   @@@@@@@",
"@@@@@@@@@@@@@ .XX        OOOOOOOOOOo          X.@@@@@@@@ @@@@@@@",
"@@@@@@@@@@@@@@.XX         o+OOOOOOo+o         X.@@@@@@@@@ @@@@@@",
"  @@@@@@@@@@@@.X@X        o+o+o+o+o++o       X@.@@@@@@@@@  @@@  ",
"@   @@@@@@@@@@.X@X       o+oo+o+o+oo+oo      X@.@@@@@@@@@@  @  @",
"@@@   @@@@@@@@.X@X       o+oo+o+o+oo+oo      X@.@@@@@@@@@@   @@@",
"@@@@@ @@@@@@@@.X@X      o++o++o+o+oo++oo     X .  @@@@@@@  @@@@@",
"@@@@@         .X  X    oo+oo+o++o+ooo+ooo   X@@.@ @@@@@@@ @@@@@@",
"@@@@@@@@@@@@@@.X@@X    oo+o++o+oo+ooo+oooo  X@@.@@ @@@@@  @@@@@@",
"@@@@@@@@@@@@@@.X@@X   oo+oo+oo+oo+ooo+ooooooX@@.@@  @@   @@@@@@@",
"@@@@@@@@@@@@@@.X@  Xoo+++o+oo++oo++oo++ooooX@@@.@@@ @@ @@@@@@@@@",
"@@@@@@@@@@@@@@.X  @Xo++ooo+oo+oooo+ooo+ooooX@@@.@@ @  @@@@@@@@@@",
"@@@@@@@@@@@@@@.X @@@Xoooo++oo+oooo+ooo++ooX@@@@.@@ @  @@@@@@@@@@",
"@@@@@@@@@@@@  .X @@@@Xooo+oo++oooo++ooo+oX@@@@@.@@ @@ @@@@@@@@@@",
"@@@@@@@@@@   @.X@@@@@Xoo++oo+oooooo+ooo+oX@@@@..@ @@@  @@@@@@@@@",
"@@@@@@@@@  @@@.X@@@@@@Xo+ooo+oooooo+ooooX  .....@ @@@@  @@@@@@@@",
"@@@@@@@@@ @@@@.X@@@@@@@XXooo+oooooo+ooXX......@@@ @@@@@  @@@@@@@",
"@@@@@@@@@ @@@@.X@@@@@@@  Xoo+oooooo++......  @@@  @@@@@@  @@@@@@",
"@@@@@@@@ @@@@@.X@@@@@@@ @@XXoooooo......@@@@ @@  @@@@@@@@  @@@@@",
"@@@@@@@ @@@@@@.X@@@@@@  @@@@XXX......@@@@@@@ @@ @@@@@@@@@@  @@@@",
"@@@@@@  @@@@@@.X@@@@@@ @@@@@......@@ @@@@@@@   @@@@@@@@@@@@  @@@",
"@@@@@  @@@@@@@.X@@@@@@ @@.....@@@@@  @@@@@@@@ @@@@@@@@@@@@@@ @@@",
"@@@@@ @@@@@@@@.X@@@@@@.....@@@@@@@@ @@@@@@@@@ @@@@@@@@@@@@@@@ @@",
"@@@   @@@@@@@@.X@@@.....@@@@@@@@@@ @@@@@@@@@@  @@@@@@@@@@@@@@ @@",
"@@  @@@@@@@@@@.X.....@@ @@@@@@@@@  @@@@@@@@@@@ @@@@@@@@@@@@@@  @",
"@  @@@@@@@@@@@....@@@@  @@@@@@@@  @@@@@@@@@@@@  @@@@@@@@@@@@@@ @",
" @@@@@@@@@@@@@@@@@@@@@ @@@@@@@@@ @@@@@@@@@@@@@@ @@@@@@@@@@@@@@@ "
};
