/* XPM */
static char *_4558c7dc45b43dffc25f40c6faa60d7fLyWEZhQdCK8xkvF[] = {
/* columns rows colors chars-per-pixel */
"64 64 9 1 ",
"  c #167830",
". c #A36605",
"X c #B97206",
"o c #108D30",
"O c #1E9C43",
"+ c #3D07A8",
"@ c #5308DF",
"# c #983698",
"$ c #FBFBFA",
/* pixels */
"OOOOOOOOOOOOOOOO OOOOOOOOOOOOOO OOOOOOOOOOOO OOOOOOOOOOOOOOO OOO",
"OOOOOOOOOOOOOOOOO OOOOOOOOOOOOOO OOOOOOOOOOO OOOOOOOO OOOOOO OOO",
"OOOOOOOOOOOOOOOOOO OOOOOOOOOOOOOO OOOOOOOOOOO OOOOOO OOOOOO  OOO",
"OOOOOOOOOOOOOOOOOOO OOOOOOOOOOOOO OOOOOOOOOOOO OOOOO OOOOOO OOOO",
"OOOOOOO OOOOOOOOOOOO OO OOOOOOOOO OOOOOOOOOOOOO OOOO OOOOOOOOOOO",
"OO OOOO OOOOOOOOOOOO OOO OOOOOOOOOOOOOOOOOOOOOO OOOO OOOOOOOOOOO",
"OOO OOO OOOOOOOOOOOOOOOO OOOOOOOOOOOOOO OOOOOOOOOOOO OO OOOOO OO",
"OOO OOOO OOOOOOOOOOOOOOO OOOOOOOOOOOOOO OOOOOOO$$$OO OO OOOOO OO",
"OOO OOOOO OOO OOOOOOOOOOO OOOOOOOOOOOOO OOOOOO$###$ OOO OOOOO OO",
"OOOO OOOO OOO OOOOOOOOOOO OOOOOOOOOOOOOO OOOOO$###$ OOO OOOO OOO",
"OOOO OOOO O@@O @@@OOOOOOOO OOOOOOOOOOOOO OOOOo$###$ OOO OOOO OOO",
"OOOO OOOO O@@@@@@@OOOOOOOO OOOOOOOOOOOOO OOOOoO$$$ OOOO OOOO OOO",
"OOOOO OOOOO+++@++OOOOOOOOOOOOOOOOOOOOOOOOOOOoOOOOO OOOO OOOOOOOO",
"OOOOOOOOOOOO@@+@@OOOOOOOOOOOOOOOOOOOOOOOOOOoOOOOOO OOOO OOOOOOOO",
"OOOOOOOOOOOO@+@+@@OOOOOOOOOOOOOOOOOOOOOOOOooOOOOO OOOOOOOOOOOOOO",
"OO OOOOOOOO@+@@@+@ OOOOOOOOOOOOOOOOOOOOOOOoOOOOOO OOOOOOOOOOOOOO",
"OOO OOOOOOOOOOoOOO OOOOOOOOOOOOOOOOOOOOOOOOOOOOO OOOOOOOOOOO OOO",
"OOOO  OOOOOoOOoOOOO OOOOOOOOOOOOOOOOOOOOOOOOOOO OOOOOOOOOOOO OOO",
"OOOOOO OOOOooOoOOOO  OOOOOOOOOOOOOOOOOOOOOOOOOO OOOOOOOOOOOO OOO",
"OOOOOO OOOOooooOOOOOOOOOOOOOOOOOOOOOOOOOOOOOOOOOOOOOOOOOOOOO OOO",
"OOOOOOO OOOOoooOOOOOOOOOOOOOOOOOOOOOOOOO OOOOOOOOOXOOOOOOOO OOOO",
"OOOOOOO OOOOOooOOOOOOOOOOOOOOOOOOOO OOOO OOOOOOOOX.XOOOOOOO OOOO",
"OOOOOOOO OOOOOOOOOOOOOOOO OOOOOOOOOO OOOO OOOOOOXX.XXOOOOO OOOOO",
"OOOOOOOOOOOOOOOOOOOOOOOOOO OOOOOOOOO OOOO OOOOOX.....XOOOO OOOOO",
"OOOOOOOOOOOOOOOOOOXOOOOOOO OOOOOOOOOO OOO OOOOOOXX.XXOOOOO OOOOO",
"OOOOOOOOOOOOOOOOOX.XOOOOOO OOOOOOOOOO OOOO OOOOOOX.XoOOOOO OOOOO",
"OOOOOOO OOOOO OOXX.XXOOOOO OOOOOOOOOO OOOO OOOO OOXOooOOOOOOOOOO",
"OOOOOOO OOOOO OX.....XOOOO OOOOOOOOOO OOOOO OOOO OOOOooOOOOOOOOO",
"OOOOOOO OOOOOO OXX.XXOOOOO OOOOOOOOOO OOOOO OOOO OOOOOooOOOOOOO ",
"OOOOOOOO OOOOO OOX.XoOOOOO OOOOOOOOOOO OOOO OOOOO OOOOOoOOOOOOO ",
"OOOOOOOO OOOOOO OOXOooOOOO OOOOOOOOOOOOOOOOOOOOOO OOOOOOOOOOOO O",
"OOOOOOOO OOOOOOO OOOOooOOO OOOOOOOOOOOOOOOOOOOOOOOOOOOOOOOOOOO O",
"OOOOOOOO OOOOOOO OOOOOooOO OOOOOOOOOOOOOOOOOOOOOOOOOO OOOOOOO OO",
"OOOOOOOO OOOOOOOO OOOOOoOO OOOOOOOOOOOOOOOOOOOOO$$$OO OOOOOOO OO",
"OOOOOOOO OOOOOOOO OOOOOOOOOOOOOOOOOOOOOOOOOOOOO$###$O OOOOOO OOO",
"OOOOOOOO OOOOOOOO OOOOOOOOOOOOOOOOOOOOOOO OOOOO$###$ OOOOOOO OOO",
"OOOOOOOOOOOOOOOOOOOOOOOOOOOOOOOOOOOOOOOOO OOOOo$###$ OOOOOOO OOO",
"OOOOOOOOOOOOOOOOOOOOOOOOOOOO OOOOOOOOOOOO OOOOoO$$$ OOOOOOOO OOO",
"OOOOOOOOOOOOOOOOOOOOOOOOOOOO OOOOOOOOOOOOOOOOoOOOOO OOOOOOO OOOO",
"OOOOOOO OOOO OOOOOOO OOOOOOO  OOOOOOOOOOOOOOoOOOOOO OOOOOOO OOOO",
"OOOOOOO OOOO OOOOOOO OOOOOOOOO  OOOOOOOOOOOooOOOOO OOOOOOOOOOOOO",
"OOOOOOO OOOO OOOOOOO OOOOOOOOOOO OOOOOOOOOOoOOOOOO OOOOOOOOOOOOO",
"OOOOOOO OOOO OOOOOOO OOOOOOOOOOO OOOOOOOOOOOOOOOO OOOOOOOOOOOOOO",
"OOOOOO OOOOO OOOOOOO OOOOOOOOOOOO OOOOOOOOOOOOOO OOOOO OOOOOOOOO",
"OOOOOO OOOOOO OOOOOO OOOOOOOOOOOO OOOOOOOOOOOOOOOOOOOO OOOOOOOOO",
"OOOOOO OOOOOOOOOOOOO OOOOOOOOOOOOO OOOOOOOOOOOOOOOOOOO OOOOOOOOO",
"OO OOOOOOOOOOOOOOOO OOOOOOOOOOOOOOO OOOOOOOOOO OOO OOOOOOOOOOOOO",
"OOO OOOOOOOOOOOOOOOOOOOOOOOOOOOOOOOOOOOOOOOOOO OOO OOOOOOOOOOOOO",
"OOO OOOOOOOOOOOOOOOOOOOOOOOOOOOOOOOOOOOOOOOOOO O@@O @@@OOOOOOOOO",
"OOO OOOOOOOOOOO OOOOOOOOOOOOOOOOOOOOOOOOOOOOOO O@@@@@@@OOOOOOOOO",
"OOOO OOOOOOOOOOO OOOOOOOOOOOOOOOOOOOOOOOOOOOOOOO+++@++OOOOOOOOOO",
"OOOO OOOOOOOOOOO OOOOOOOOOOOOOOOOOOOOOOOOOOOOOOOO@@+@@OOOOOOOOOO",
"OOOOO OOOOOOOOOOO OOOOOOOOOOOOOOOOOOOOOOOOOOOOOOO@+@+@@OOOOOOOOO",
"OOOOO OOOOOOOOOOO OOOOOOOOOOOOOOOO OOOOOOOOOOOOO@+@@@+@ OOOOOOOO",
"OOOOO  OOOOOOOOOOO OOOOOOOOOOOOOOO OOOOOOOOOOOOOOOOoOOO OOOOOOOO",
"OOOOOOOOOOOOOOOOOO OOOOOOOOOOOOOOO OOOOOOOOOOOOOoOOoOOOO OOOOOOO",
"OOOOOOOOOOOOOOOOOOO OOOOOOOOOOOOO OOOOOOOO  OOOOooOoOOOO  OOOOOO",
"OOOOOOOOOOOOOOOOOOO OOOOOOOOOOOO  OOOOOOO O OOOOooooOOOOOOOOOOOO",
"OOOOOOOOOOOOOOOOOOO OOOOOOOOOO  OOOOOOO  OOO OOOOoooOOOOOOOOOOOO",
"OOOOOOOOOOOOOOOOOOOOOOOOOOOOOO OOOOOOOOOOOOO OOOOOooOOOOOOOOOOOO",
"OOOOOOOOOOOOOOOOOOOOOOOOOOOOOOOOOOOOOOOOOOOOO OOOOOOOOOOOOOOOOOO",
"OOOOOOOOOOOOOOOOOOOOOOOOOOOOOOOOOOOOOOOOOOOOOOOOOOOOOOOOOOOOOOOO",
"OOOOOOOOOOOOOOOOOOOOOOOOOOOOOOOOOOOOOOOOOOOOOOOOOOOOOOOOOOOOOOOO",
"OOOOOOOOOOOOOOOOOOOOOOOOOOOOOOOOOOOOOOOOOOOOOOOOOOOOOOOOOOOOOOOO"
};
