/* XPM */
static char *_1207af928b34d03a0ba80207dc8a1e0guZPvBd4zqdkxACq[] = {
/* columns rows colors chars-per-pixel */
"64 64 10 1 ",
"  c #261F00",
". c #2F2503",
"X c #0A6303",
"o c #167830",
"O c #108C31",
"+ c #1E9C43",
"@ c #3D07A9",
"# c #5208DF",
"$ c #983798",
"% c #FBFBFA",
/* pixels */
"++++++++++++++++o++++++++++++++o++++XXXXXXXXX+++++++++++++++o+++",
"+++++++++++++++++o+++XXXXXX++XXXo++XXXX.XX.XXX+++++++o++++++o+++",
"++++++++++++++++++o+XX.XXXXXXXXXXXXXX..XXXX..X++++++o++++++oo+++",
"+++++++++++++++++++oX..XXXX.XXXXX.XXXX.XXXX.XXX+++++o++++++o++++",
"+++++++o++++++XXXXXXXX.XXX..XX.XX.XXXX.XXXX.XXXX++++o+++++++++++",
"++o++++o+++++XXXXXXXXX..XX.XXXX...XXXX..XX..XXXX++++o+++++++++++",
"+++o+++o++++XX..XXX..XX....XXXXX..XXXXX.XX.XXXXX++++o++o+++++o++",
"+++o++++o+++XXX..XX.XXXX..XXXXXXX.XXXXX.XX.XXXXX%%++o++o+++++o++",
"+++o+++++o++XXXX....XXX...XXXXXXX.XXXXX....XXXXX$$%o+++o+++++o++",
"++++o++++o+++XXXX..XXXX.X.XXXXXXX.XXXXXX.XXXXXXXXXXXXX+o++++o+++",
"++++o++++o+++XXXX..XXXX.X..XXXXXX.XXXXXX.XXXXXXXXXXXXXXo++++o+++",
"++++o+++XXX+++XXX..XXXX.XX.XXXXXX..XXXXX.XXXXXXXXXX.XXXo++++o+++",
"+++++oXXXXXXXXXXX...XXX.XX..XXXXXX.XXXXX.XXXXXXXXXXX.XXo++++++++",
"+++++XX.XXXXXXXXXX...XX.XXX.XXXXXX.XXXXX.XXX.XXXXXX..XXo++++++++",
"++++XXX..XXXXXXXXXXX...XXXX.XXXXXX..XXX..XX..XX.....XXX+++++++++",
"++o+XXXX..XXXXX.XXXX...XXXX..XXXXXX..XX.XXXX....XXXXXXX+++++++++",
"+++oXXXXX...XXX.XXXXX..XXXXX.XXXXXXX....XXXXX..XXXXXXXXX++++o+++",
"++++XXXXXXX..X..XXXXXX..XXXX.XXXXXXX.XXXXXXXX.XXXXXXXXXX++++o+++",
"+++XXXXXXXXX...XXXXXXX...XXX..XXXXXX.XXXXXXX.XXXXXXXXXXX++++o+++",
"++XX..XXXXXXX....XXXXXXX.XXXX.XXXX...XXXXXX..XXXXXXXXXX+++++o+++",
"++XXX..XXXXXXXXX....XXXXX..XX.....XXXXXXXX..XXXXXXXXXX+++++o++++",
"++XXXX....XXX.XXXXX...XXXX..XX..XXXXXXXX...XXXXXXXXXXXX++++o++++",
"++XXXXXXX.XX..XXXXXXX...XXX.     XXXXX...XXXXXXXXXXXXXXXX+o+++++",
"+++XXXXXX....XXXXX.XXXX..XXX .... X...XXXXXXXXXXXXXXXX.XXXo+++++",
"+++XXXXXXX..XXXXXX.XXXXXX..X .... ..XXXXXXXXXXX.XXXX..XXXXo+++++",
"++++XXXXXXXX........XXXXXX  ... .. XXXXXXXXXX...XXXX.XXXXXo+++++",
"+++++XXXXXXXXXXXXXX....XXX ....  . XXX...XXXXX.XXX.X.XXXXX++++++",
"++++++XXXXXXXXXXXXXXXXX..  ..... . ....X....X..XXXX..XXXX+++++++",
"+++++++XXXXXXXXXXXXXXXXXX .... . . XXXXXXXXX........XXXXX++++++o",
"++++++++oXXXXXXXXXXXXXXXX .... ... ++XXXXXXXXXXXXXXXXXXO+++++++o",
"++++++++o++XXXXXXXXXXXXXXX ...  .. +++XXXXXXXXXX+o++++++++++++o+",
"++++++++o+++++XXXXXXXXXXX+  ..  .. ++++XXXXXXXXX++++++++++++++o+",
"++++++++o+++++++oXXXXXOO++  ... .. ++++++XXXXXX++++++o+++++++o++",
"++++++++o++++++++o+++++O++  ...... +++++++++++++%%%++o+++++++o++",
"++++++++o++++++++o++++++++  ...... ++++++++++++%$$$%+o++++++o+++",
"++++++++o++++++++o++++++++ ....... ++++++o+++++%$$$%o+++++++o+++",
"++++++++++++++++++++++++++ ... . . ++++++o++++O%$$$%o+++++++o+++",
"++++++++++++++++++++++++++  .. .   ++++++o++++O+%%%o++++++++o+++",
"++++++++++++++++++++++++++  .. ..  ++++++++++O+++++o+++++++o++++",
"+++++++o++++o+++++++o+++++  .. ... +++++++++O++++++o+++++++o++++",
"+++++++o++++o+++++++o+++++ ....... ++++++++OO+++++o+++++++++++++",
"+++++++o++++o+++++++o+++++ ....... ++++++++O++++++o+++++++++++++",
"+++++++o++++o+++++++o+++++ ....... ++++++++++++++o++++++++++++++",
"++++++o+++++o+++++++o+++++ ...  .. +++++++++++++o+++++o+++++++++",
"++++++o++++++o++++++o+++++ ... ... +++++++++++++++++++o+++++++++",
"++++++o+++++++++++++o+++++ ... ... +++++++++++++++++++o+++++++++",
"++o++++++++++++++++o++++++ ... ... o++++++++++o+++o+++++++++++++",
"+++o++++++++++++++++++++++ ....... +++++++++++o+++o+++++++++++++",
"+++o++++++++++++++++++++++ . ..... +++++++++++o+##+o###+++++++++",
"+++o+++++++++++o++++++++++ . ..... .++++++++++o+#######+++++++++",
"++++o+++++++++++o+++++++++ .. .... +++++++++++++@@@#@@++++++++++",
"++++o+++++++++++o+++++++++ .. .... ++++++++++++++##@##++++++++++",
"+++++o+++++++++++o++++++++ .. .... ++++++++++++++#@#@##+++++++++",
"+++++o+++++++++++o++++++++ .. .... +++++++++++++#@###@#o++++++++",
"+++++oo+++++++++++o+++++++ ....... ++++++++++++++++O+++o++++++++",
"++++++++++++++++++o+++++++ ....  . +++++++++++++O++O++++o+++++++",
"+++++++++++++++++++o++++++ .... ... ++++++oo++++OO+O++++oo++++++",
"+++++++++++++++++++o+++++  .... ... +++++o+o++++OOOO++++++++++++",
"+++++++++++++++++++o+++++ .. .. ... +++oo+++o++++OOO++++++++++++",
"+++++++++++++++++++++++++ .. ....... +++++++o+++++OO++++++++++++",
"++++++++++++++++++++++++  .. ....  . ++++++++o++++++++++++++++++",
"++++++++++++++++++++++++ ... ..... .. ++++++++++++++++++++++++++",
"+++++++++++++++++++++++  ............ ++++++++++++++++++++++++++",
"++++++++++++++++++++++                  ++++++++++++++++++++++++"
};
