/* XPM */
static char *_c8264a2c44e46759f81aaf68e7007a5uccm43euSOl5ytnX[] = {
/* columns rows colors chars-per-pixel */
"64 64 15 1 ",
"  c #000001",
". c #2B2100",
"X c #382D01",
"o c #473801",
"O c #0B6202",
"+ c #167830",
"@ c #A36704",
"# c #B87207",
"$ c #108D30",
"% c #00EC1D",
"& c #1E9C43",
"* c #3D06A8",
"= c #5308DF",
"- c #983698",
"; c #FBFBFA",
/* pixels */
"&&&&&&&&&&&&&&&&+&&&&&&&&&&&&&&+&&&&&&&&&&&&+&&&&&&&&&&&&&&&+&&&",
"&&&&&&&&&&&&&&&&&+&&&&&&&&&&&&&&+&&&&&&&&&&&+&&&&&&&&+&&&&&&+&&&",
"&&&&&&&&&&&&&&&&&&+&&&&&&&&&&&&&&+&&&&&&&&&&&+&&&&&&+&&&&&&++&&&",
"&&&&&&&&&&&&&&&&&&&+&&&&&&&&&&&&&+&&&&&&&&&&&&+&&&&&+&&&&&&+&&&&",
"&&&&&&&+&&&&&&&&&&&&+&&+&&&&&&&&&+&&&&&&&&&&&&&+&&&&+&&&&&&&&&&&",
"&&+&&&&+&&&&&&&&&&&&+&&&+&&&&&&&&&&&&&&&&&&&&&&+&&&&+&&&&&&&&&&&",
"&&&+&&&+&&&&&&&&&&&&&&&&&&&&&&&&&&&&&&&+&&&&&&&&&&&&+&&+&&&&&+&&",
"&&&+&&&&+&&&&&&&&&&&&&&&+&&&OOOOO&&&&&&+&&&&&&&;;;&&+&&+&&&&&+&&",
"&&&+&&&&&+&&&+&&&&&&&&&&&O&OOOOOOOO&&&&+&&&&&&;---;+&&&+&&&&&+&&",
"&&&&+&&&&+&&&+&&&&&&&&&&OOOOOoOOOOOO&&&&+&&&&&;---;+&&&+&&&&+&&&",
"&&&&+&&&&+&==&+===&&&&&OOOOoOoooOOOOO&&&+&&&&$;---;+&&&+&&&&+&&&",
"&&&&+&&&&+&=======&&&&&OOOooooooooOOOO&&+&&&&$&;;;+&&&&+&&&&+&&&",
"&&&&&+&&&&&***=**&&&&&&&Oooo..oo..oOO&&&&&&&$&&&&&+&&&&+&&&&&&&&",
"&&&&&&&&&&&&==*==&&&&&&&&OOoooooooooO&&&&&&$&&&&&&+&&&&+&&&&&&&&",
"&&&&&&&&&&&&=*=*==&&&&&&&&Ooo%%o%%oO&&&&&&$$&&&&&+&&&&&&&&&&&&&&",
"&&+&&&&&&&&=*===*=+&&&&&&&oooooooooo&&&&&&$&&&&&&+&&&&&&&&&&&&&&",
"&&&+&&&&&&&&&&$&&&+&&&&&&&oo.oooo.oo&&&&&&&&&&&&+&&&&&&&&&&&+&&&",
"&&&&++&&&&&$&&$&&&&O&&&&&&&oo....oo&&&&&&&&&&&&+&&&&&&&&&&&&+&&&",
"&&&&&&+&&&&$$&$&O&&XO&&O&&&&oooooo&&&&&&&&&&&&&+&&&&&&&&&&&&+&&&",
"&&&&&&+&&&&$$$$Oo&&XO&&ooO&&&oooo&&&O&&&&&&&&&&&&&&&&&&&&&&&+&&&",
"&&&&&&&+&&&&$$$oO&&&&O&&&o&&&&oo&&&&XO&&O&o&&&&&&&#&&&&&&&&+&&&&",
"&&&&&&&+&&&&&$$ooO&&XO&&oO&&&oooo&&+&XO&OoO&&&&&&#@#&&&&&&&+&&&&",
"&&&&&&&&+&&&&&&&Oo&&OX&&OoO&oXXooo&&OX&&o+&&&&&&##@##&&&&&+&&&&&",
"&&&&&&&&&&&&&&&&&OooooooooooooXoooo.ooooo+&&O&&#@@@@@#&&&&+&&&&&",
"&&&&&&&&&&&&&&&&&&#&ooooXoooooooXX.ooo..o+&&oO&&##@##&&&&&+&&&&&",
"&&&&&&&&&&&&&&&&&#@#ooooXoooooooXXooooXXoo+&&O&&&#@#$&&&&&+&&&&&",
"&&&&&&&+&&&&&+&&##@oooooXXooooooXXoooooXoo+&oo&+&&#&$$&&&&&&&&&&",
"&&&&&&&+&&&&&+&#@@@o.oooooooo.ooooo.oooX.oOoO&&&+&&&&$$&&&&&&&&&",
"&&&&&&&+&&&&&&+&##@oXoo&ooXoo.oooo.XXoooooo+&&&&+&&&&&$$&&&&&&&+",
"&&&&&&&&+&&&&&+&&#@oo.o&ooX.oo..ooXXo&o..o&+&&&&&+&&&&&$&&&&&&&+",
"&&&&&&&&+&&&&&&+&&#oooo&ooXXooooooXoo&oo.o&&&&&&&+&&&&&&&&&&&&+&",
"&&&&&&&&+&&&&&&&+&&ooo$&oooX.oooooooo&&o.o&&&&&&&&&&&&&&&&&&&&+&",
"&&&&&&&&+&&&&&&&+&&ooo$$ooooXooooXoXX&&ooo&&&&&&&&&&&+&&&&&&&+&&",
"&&&&&&&&+&&&&&&&&+&.Xo&$oXooooooXXoXo&&ooo&&&&&&;;;&&+&&&&&&&+&&",
"&&&&&&&&+&&&&&&&&+&oX.&&oXoo..oXXooXo&&oo.&&&&&;---;&+&&&&&&+&&&",
"&&&&&&&&+&&&&&&&&+&oo.&&oXoo..oXooooo&&o.o&&&&&;---;+&&&&&&&+&&&",
"&&&&&&&&&&&&&&&&&&&ooo&&oXXoo.oooX.oo&&o.o&&&&$;---;+&&&&&&&+&&&",
"&&&&&&&&&&&&&&&&&&&ooo&&ooXoooooo.Xoo&&ooo&&&&$&;;;+&&&&&&&&+&&&",
"&&&&&&&&&&&&&&&&&&&oooo&ooXooooooo.oo&oooo&&&$&&&&&+&&&&&&&+&&&&",
"&&&&&&&+&&&&+&&&&&&ooo&&.Xooo.oooo.oo&&ooo&&$&&&&&&+&&&&&&&+&&&&",
"&&&&&&&+&&&&+&&&&&&ooo&&oXXoo..ooo.oo&&ooo&$$&&&&&+&&&&&&&&&&&&&",
"&&&&&&&+&&&&+&&&&&&&+&&&o.ooooooooooo&&&&&&$&&&&&&+&&&&&&&&&&&&&",
"&&&&&&&+&&&&+&&&&&&&+&&&&..ooooooXoo&&&&&&&&&&&&&+&&&&&&&&&&&&&&",
"&&&&&&+&&&&&+&&&&&&&+&&&&oooo&&&oooo&&&&&&&&&&&&+&&&&&+&&&&&&&&&",
"&&&&&&+&&&&&&+&&&&&&+&&&&ooo&&&&oo..&&&&&&&&&&&&&&&&&&+&&&&&&&&&",
"&&&&&&+&&&&&&&&&&&&&+&&&&ooo&&&&&oo.&&&&&&&&&&&&&&&&&&+&&&&&&&&&",
"&&+&&&&&&&&&&&&&&&&+&&&&&oXo&&&&&oo.&&&&&&&&&&+&&&+&&&&&&&&&&&&&",
"&&&+&&&&&&&&&&&&&&&&&&&&&oXo&&&&&oo.&&&&&&&&&&+&&&+&&&&&&&&&&&&&",
"&&&+&&&&&&&&&&&&&&&&&&&&&o..&&&&&ooo&&&&&&&&&&+&==&+===&&&&&&&&&",
"&&&+&&&&&&&&&&&+&&&&&&&&&ooo&&&&&ooo&&&&&&&&&&+&=======&&&&&&&&&",
"&&&&+&&&&&&&&&&&+&&&&&&&&ooo&&&&&o.o&&&&&&&&&&&&***=**&&&&&&&&&&",
"&&&&+&&&&&&&&&&&+&&&&&&&&ooo&&&&&o.o&&&&&&&&&&&&&==*==&&&&&&&&&&",
"&&&&&+&&&&&&&&&&&+&&&&&&&oXo&&&&&X.o&&&&&&&&&&&&&=*=*==&&&&&&&&&",
"&&&&&+&&&&&&&&&&&+&&&&&&&.Xo&&&&&.oo&&&&&&&&&&&&=*===*=+&&&&&&&&",
"&&&&&++&&&&&&&&&&&+&&&&&oXXo&&&&&oooXo&&&&&&&&&&&&&$&&&+&&&&&&&&",
"&&&&&&&&&&&&&&&&&&+&&oooooo&&&&&&&o.Xo.o&&&&&&&&$&&$&&&&+&&&&&&&",
"&&&&&&&&&&&&&&&&&&&ooo.Xo.o&&&&&&+oo.oo.oo++&&&&$$&$&&&&++&&&&&&",
"&&&&&&&&&&&&&&&&&&&+oo.oo.o&&&&&++ooooooo+&+&&&&$$$$&&&&&&&&&&&&",
"&&&&&&&&&&&&&&&&&&&+&& &&&&&&&++&&&&&&&++&&&+&&&&$$$&&&&&&&&&&&&",
"&&&&&&&&&&&&&&&&&&&&&&&&&&&&&&+&&&&&&&&&&&&&+&&&&&$$&&&&&&&&&&&&",
"&&&&&&&&&&&&&&&&&&&&&&&&&&&&&&&&&&&&&&&&&&&&&+&&&&&&&&&&&&&&&&&&",
"&&&&&&&&&&&&&&&&&&&&&&&&&&&&&&&&&&&&&&&&&&&&&&&&&&&&&&&&&&&&&&&&",
"&&&&&&&&&&&&&&&&&&&&&&&&&&&&&&&&&&&&&&&&&&&&&&&&&&&&&&&&&&&&&&&&",
"&&&&&&&&&&&&&&&&&&&&&&&&&&&&&&&&&&&&&&&&&&&&&&&&&&&&&&&&&&&&&&&&"
};
