/* XPM */
static char *_ae12e70b3df433be818212d99bdae3fQvrpnhSJJNEanKFP[] = {
/* columns rows colors chars-per-pixel */
"64 64 13 1 ",
"  c #3D2E03",
". c #167830",
"X c #A36705",
"o c #B97306",
"O c #108D30",
"+ c #1E9C43",
"@ c #3D06A8",
"# c #5308DF",
"$ c #983698",
"% c #0F96FE",
"& c #EAF79C",
"* c #FAFAFB",
"= c #FEFEFE",
/* pixels */
"++++++++++++++++.++++++++++++++.++++++++++++.+++++++++++++++.+++",
"+++++++++++++++++.++++++++++++++.+++++++++++.++++++++.++++++.+++",
"++++++++++++++++++.++++++++++++++.+++++++++++.++++++.++++++..+++",
"+++++++++++++++  ++.+++++++++++++.++++++++++++.+++++.++++++.++++",
"+++++++.+++++++ +  +.++.+++++++++.+++++++++++++.++++.+++++++++++",
"++.++++.+++++++ +++  +++.++++++++++++++++++++++.++++.+++++++++++",
"+++.+++.+++++++ +++++  +.++++++++++++++.++++++++++++.++.+++++.++",
"+++.++++.++++++ +++++++  ++++++++++++++.+++++++***++.++.+++++.++",
"+++.+++++.+++.+ +++++++++  ++++++++++++.++++++*$$$*.+++.+++++.++",
"++++.++++.+++.+ +++++++++.+  +++++++++++.+++++*$$$*.+++.++++.+++",
"++++.++++.+##+. ##++++++++.++  +++++++++.++++O*$$$*.+++.++++.+++",
"++++.++++.+#### ##++++++++.++++  +++++++.++++O+***.++++.++++.+++",
"+++++.+++++@@@# @+++++++++++       +++++++++O+++++.++++.++++++++",
"++++++++++++##@ #+++++++++  &&&&&&&  ++++++O++++++.++++.++++++++",
"++++++++++++#@# ##+++++++ %%&&&&&&&%%  +++OO+++++.++++++++++++++",
"++.++++++++#@## @#.++++  %%%&&&&&&&%%%   +O++++++.++++++++++++++",
"+++.++++++++++O ++.+++ %%%%%%&&&&&%%%%%%   +++++.+++++++++++.+++",
"++++..+++++O++O +++.+ %%%%%%%%%%%%%%%%%%% +  ++.++++++++++++.+++",
"++++++.++++OO+O +++.. ==%%%%%%%%%%%%%%%%% +++   ++++++++++++.+++",
"++++++.++++OOOO ++++ ===%%%%%%%%%%%%%%%%%% ++++ ++++++++++++.+++",
"+++++++.++++OOO +++ ====%%%%%%%=====%%%%%== +++ ++o++++++++.++++",
"+++++++.+++++OO +++ ====%%%%%=======%%%%=== +++ +oXo+++++++.++++",
"++++++++.++++++ ++ ====%%%%%========%%%%==== ++ ooXoo+++++.+++++",
"+++++++++++++++ ++ %%%%%%%%%%=======%%%====== + XXXXXo++++.+++++",
"+++++++++++++++ ++ %%%%%%%%%%=======%%%=====% + ooXoo+++++.+++++",
"+++++++++++++++ + %%%%%%%%%%%=====%%%%%%%===% + +oXoO+++++.+++++",
"+++++++.+++++.+ o %%%%%%%%%%%%%%%%%%%%%%%%%%% + ++o+OO++++++++++",
"+++++++.+++++.+ X %%%%%%%%%%%%%%%%%%%%%%%%%%% + .++++OO+++++++++",
"+++++++.++++++. o %%%%%%%%%%%%%%%%%%%%%%%%%%% + .+++++OO+++++++.",
"++++++++.+++++.  %%%%%%%%%%%%%%%%%%%%%%%%%%%%%  +.+++++O+++++++.",
"++++++++.++++++  %%%%%%%%%%%%%%%%%%%%%%%%%%%%%  +.++++++++++++.+",
"++++++++.++++++  %%%%%%%%%%%%%%%%%%%%%%%%%%%%%  ++++++++++++++.+",
"++++++++.++++++  %%%%%%%%%%%%%%%%%%%%%%%%%%%%%  +++++.+++++++.++",
"++++++++.++++++  %%%%%%%%%%%%%%%%%%%%%%%%%%%%%  ***++.+++++++.++",
"++++++++.++++++  %%%%%%%%%%%%%%%%%%%%%%%%%%%%%  $$$*+.++++++.+++",
"++++++++.++++++  %%%%%%%%%%%%%%%%%%%%%%%%%%%%%  $$$*.+++++++.+++",
"+++++++++++++++  %%%%%%%%%%%%%%%%%%%%%%%%%%%%%  $$$*.+++++++.+++",
"+++++++++++++++  %%%%%%%%%%%%%%%%%%%%%%%%%%%%%  ***.++++++++.+++",
"+++++++++++++++  %%%%%%%%%%%%%%%%%%%%%%%%%%%%%  +++.+++++++.++++",
"+++++++.++++.++  %%%%%%%%%%%%%%%%%%%%%%%%%%%%%  +++.+++++++.++++",
"+++++++.++++.++ + %%%%%%%%%%%%%%%%%%%%%%%%%%% + ++.+++++++++++++",
"+++++++.++++.++ + ........................... + ++.+++++++++++++",
"+++++++.++++.++ + ........................... + +.++++++++++++++",
"++++++.+++++.++ + ........................... + .+++++.+++++++++",
"++++++.++++++.+ ++ ......................... ++ ++++++.+++++++++",
"++++++.++++++++ ++ ......................... ++ ++++++.+++++++++",
"++.++++++++++++ ++ ......................... +. ++.+++++++++++++",
"+++.+++++++++++ +++ ....................... ++. ++.+++++++++++++",
"+++.+++++++++++ +++ ....................... ++. ##+.###+++++++++",
"+++.+++++++++++ ++++ ..................... +++. #######+++++++++",
"++++.++++++++++ .++++ ................... +++++ @@@#@@++++++++++",
"++++.++++++++++ .++++ ................... ++++  +##@##++++++++++",
"+++++.+++++++++ +.++++ ................. ++   +++#@#@##+++++++++",
"+++++.+++++++++ +.+++++  .............     +++++#@###@#.++++++++",
"+++++..++++++++ ++.++++++ ...........   +++++++++++O+++.++++++++",
"+++++++++++++++ ++.+++++++  ......   +++++++++++O++O++++.+++++++",
"+++++++++++++++ +++.++++++++       +++++++..++++OO+O++++..++++++",
"+++++++++++++++ +++.+++++++++  +..+++++++.+.++++OOOO++++++++++++",
"+++++++++++++++ +++.++++++   +..+++++++..+++.++++OOO++++++++++++",
"+++++++++++++++ +++++++   ++++.+++++++++++++.+++++OO++++++++++++",
"+++++++++++++++ ++++   ++++++++++++++++++++++.++++++++++++++++++",
"+++++++++++++++ +   ++++++++++++++++++++++++++++++++++++++++++++",
"+++++++++++++++  +++++++++++++++++++++++++++++++++++++++++++++++",
"++++++++++++++++++++++++++++++++++++++++++++++++++++++++++++++++"
};
